<svg xmlns="http://www.w3.org/2000/svg" viewBox="0 0 800 500" width="800" height="500" role="img" aria-label="Celular com ganhos de até 10 mil por conversão">
  <defs>
    <linearGradient id="gg" x1="0" y1="0" x2="1" y2="1">
      <stop offset="0" stop-color="#39ff88"/>
      <stop offset="1" stop-color="#3ef0ff"/>
    </linearGradient>
    <filter id="gb" x="-50%" y="-50%" width="200%" height="200%"><feGaussianBlur stdDeviation="10"/></filter>
  </defs>
  <rect width="800" height="500" fill="#000"/>
  <g filter="url(#gb)" opacity="0.5">
    <rect x="300" y="60" width="200" height="380" rx="34" fill="none" stroke="url(#gg)" stroke-width="10"/>
  </g>
  <rect x="300" y="60" width="200" height="380" rx="34" fill="#050505" stroke="url(#gg)" stroke-width="6"/>
  <rect x="370" y="78" width="60" height="8" rx="4" fill="#3ef0ff" opacity="0.6"/>
  <g font-family="Manrope, Arial, sans-serif" text-anchor="middle">
    <text x="400" y="195" fill="#ffffff" font-size="20" opacity="0.7" font-weight="700">1% do bem</text>
    <text x="400" y="255" fill="#39ff88" font-size="46" font-weight="800">R$ 10k</text>
    <text x="400" y="295" fill="#c04bff" font-size="20" font-weight="700">teto por conversão</text>
  </g>
  <rect x="330" y="330" width="140" height="46" rx="23" fill="url(#gg)"/>
  <text x="400" y="360" font-family="Manrope, Arial, sans-serif" text-anchor="middle" fill="#000" font-size="19" font-weight="800">receber</text>
  <g stroke="#c04bff" stroke-width="6" stroke-linecap="round" opacity="0.9">
    <path d="M170 150v70M135 185h70M620 300v60M590 330h60"/>
  </g>
  <g fill="none" stroke="#39ff88" stroke-width="6">
    <circle cx="640" cy="150" r="42"/>
    <path d="M640 128v44M628 140h24M652 160h-24" stroke-linecap="round"/>
    <circle cx="160" cy="360" r="34"/>
    <path d="M160 342v36M150 352h20M170 368h-20" stroke-linecap="round"/>
  </g>
</svg>
